<svg width="24" height="24" viewBox="0 0 24 24" fill="none" xmlns="http://www.w3.org/2000/svg">
<path d="M20 20L4 20" stroke="#1C274C" stroke-width="1.5" stroke-linecap="round"/>
<path d="M19.2 20V7.2C19.2 5.69151 19.2 4.93726 18.7314 4.46863C18.2628 4 17.5085 4 16 4H14.4C12.8915 4 12.1373 4 11.6686 4.46863C11.2914 4.84586 11.2178 5.40817 11.2035 6.4" stroke="#1C274C" stroke-width="1.5"/>
<path d="M14.4 20V9.59999C14.4 8.0915 14.4 7.33725 13.9314 6.86862C13.4628 6.39999 12.7085 6.39999 11.2 6.39999H8.00005C6.49155 6.39999 5.73731 6.39999 5.26868 6.86862C4.80005 7.33725 4.80005 8.0915 4.80005 9.59999V20" stroke="#1C274C" stroke-width="1.5"/>
<path d="M9.59998 20V17.6" stroke="#1C274C" stroke-width="1.5" stroke-linecap="round"/>
<path d="M7.19995 8.8H12" stroke="#1C274C" stroke-width="1.5" stroke-linecap="round"/>
<path d="M7.19995 11.2H12" stroke="#1C274C" stroke-width="1.5" stroke-linecap="round"/>
<path d="M7.19995 13.6H12" stroke="#1C274C" stroke-width="1.5" stroke-linecap="round"/>
</svg>
