<svg width="20" height="20" viewBox="0 0 20 20" fill="none" xmlns="http://www.w3.org/2000/svg">
<path d="M5.13916 6.52759H14.8614V14.9443C14.8614 16.0488 13.966 16.9443 12.8614 16.9443H7.13916C6.03459 16.9443 5.13916 16.0488 5.13916 14.9443V6.52759Z" stroke="#8B96B8"/>
<path d="M8.61084 9.30545V13.4721" stroke="#8B96B8" stroke-linecap="round"/>
<path d="M11.3892 9.30545V13.4721" stroke="#8B96B8" stroke-linecap="round"/>
<path d="M7.9165 4.05545C7.9165 3.50317 8.36422 3.05545 8.9165 3.05545H11.0832C11.6355 3.05545 12.0832 3.50317 12.0832 4.05545V4.44434H7.9165V4.05545Z" stroke="#8B96B8"/>
<path d="M3.75 5.48591C3.75 4.91061 4.21637 4.44424 4.79167 4.44424H15.2083C15.7836 4.44424 16.25 4.91061 16.25 5.48591V5.48591C16.25 6.06121 15.7836 6.52758 15.2083 6.52758H4.79167C4.21637 6.52758 3.75 6.06121 3.75 5.48591V5.48591Z" stroke="#8B96B8"/>
</svg>
