<svg width="54" height="54" viewBox="0 0 54 54" fill="none" xmlns="http://www.w3.org/2000/svg">
<path d="M23.4 45C31.3529 45 37.8 38.5529 37.8 30.6C37.8 22.6471 31.3529 16.2 23.4 16.2C15.4471 16.2 9 22.6471 9 30.6C9 32.8239 9.50414 34.93 10.4044 36.8104C10.7138 37.4567 10.8224 38.1889 10.6372 38.8811L10.0467 41.0879C9.58132 42.8273 11.1726 44.4186 12.912 43.9532L15.1189 43.3628C15.8111 43.1776 16.5433 43.2862 17.1896 43.5956C19.0699 44.4958 21.1761 45 23.4 45Z" stroke="white" stroke-width="1.5"/>
<path d="M37.8 31.5033C37.9197 31.4534 38.0383 31.4016 38.1559 31.3479C38.8077 31.0501 39.5389 30.9388 40.2311 31.124L41.088 31.3533C42.8274 31.8187 44.4187 30.2274 43.9533 28.488L43.724 27.6311C43.5388 26.9389 43.6502 26.2077 43.9479 25.5559C44.6235 24.0768 45 22.4324 45 20.7C45 14.2383 39.7617 9 33.3 9C28.4359 9 24.2651 11.9682 22.5 16.1921" stroke="white" stroke-width="1.5"/>
<path d="M18.9 30.6C18.9 31.5942 18.0942 32.4 17.1 32.4C16.1059 32.4 15.3 31.5942 15.3 30.6C15.3 29.6059 16.1059 28.8 17.1 28.8C18.0942 28.8 18.9 29.6059 18.9 30.6Z" fill="white"/>
<path d="M25.2 30.6C25.2 31.5942 24.3942 32.4 23.4 32.4C22.4059 32.4 21.6 31.5942 21.6 30.6C21.6 29.6059 22.4059 28.8 23.4 28.8C24.3942 28.8 25.2 29.6059 25.2 30.6Z" fill="white"/>
<path d="M31.5 30.6C31.5 31.5942 30.6942 32.4 29.7 32.4C28.7059 32.4 27.9 31.5942 27.9 30.6C27.9 29.6059 28.7059 28.8 29.7 28.8C30.6942 28.8 31.5 29.6059 31.5 30.6Z" fill="white"/>
</svg>
