<svg width="52" height="58" viewBox="0 0 52 58" fill="none" xmlns="http://www.w3.org/2000/svg">
<path d="M8.78026 20.3387V38.5463L25.8996 47.6401L43.1662 38.4312L43.0298 20.3387L25.8996 11.3801L8.78026 20.3387ZM25.8996 8.0022L45.4685 18.4669V39.9778L25.8996 50.2428L6.90625 39.9778V18.8624L25.8996 8.0022Z" fill="#8CBCFF"/>
<path fill-rule="evenodd" clip-rule="evenodd" d="M45.4685 18.4669V39.9777L25.8996 50.2428L6.90625 39.9777L8.80443 38.559L25.8996 47.6401L43.1662 38.4312L43.0298 20.3386L42.9579 20.3012L45.4685 18.4669Z" fill="#BAD7FF"/>
<path fill-rule="evenodd" clip-rule="evenodd" d="M43.1661 38.3978L45.4683 39.9777L25.8994 50.2428V47.6401L43.1661 38.4312V38.3978Z" fill="#D6E7FF"/>
<path fill-rule="evenodd" clip-rule="evenodd" d="M25.8996 8.0022V11.3801L8.8194 20.3185L6.90625 18.8624L25.8996 8.0022Z" fill="#588FDB"/>
<path fill-rule="evenodd" clip-rule="evenodd" d="M16.0594 18.8623H35.0325L39.7014 26.1822L25.6061 44.1867L11.5107 26.1822L16.0594 18.8623Z" fill="url(#paint0_linear_223_1993)"/>
<path fill-rule="evenodd" clip-rule="evenodd" d="M25.6064 44.1867L39.7018 26.2156H32.4671L25.6064 44.1867Z" fill="#588FDB"/>
<path fill-rule="evenodd" clip-rule="evenodd" d="M39.7014 26.2156L35.0025 18.8623H28.7646L32.4666 26.2156H39.7014Z" fill="#80AFF1"/>
<path fill-rule="evenodd" clip-rule="evenodd" d="M16.0594 18.8623H28.7647L28.5219 26.1437L11.5107 26.2156L16.0594 18.8623Z" fill="#D6E7FF"/>
<path fill-rule="evenodd" clip-rule="evenodd" d="M25.606 44.1867L20.0674 26.1437L22.9129 18.8623H28.7646L32.4666 26.2156L25.606 44.1867Z" fill="#8CBCFF"/>
<path fill-rule="evenodd" clip-rule="evenodd" d="M20.0674 26.1437L22.9129 18.8623H27.2135L32.4666 26.2156L20.0674 26.1437Z" fill="#BAD7FF"/>
<path fill-rule="evenodd" clip-rule="evenodd" d="M11.5107 26.2156L22.9131 18.8623L32.4667 26.2156L35.0026 18.8623H16.0594L11.5107 26.2156Z" fill="#FEFEFF" fill-opacity="0.2"/>
<path fill-rule="evenodd" clip-rule="evenodd" d="M16.0596 18.8623L20.0677 26.1437L28.765 18.8623L39.7017 26.2156L35.0028 18.8623H16.0596Z" fill="#A3CAFF" fill-opacity="0.2"/>
<path fill-rule="evenodd" clip-rule="evenodd" d="M11.5107 26.1016L19.7619 25.9226L16.167 18.8623L20.0278 25.4985L22.9131 18.8623L20.3386 25.9226L30.3044 26.1016L20.3386 26.2927L25.1318 42.4198L19.7619 26.2927L11.5107 26.1016Z" fill="white"/>
<path d="M6.90666 18.8624V39.9778L25.9 50.2428L45.4689 39.9778V18.4669L25.9 8.0022L6.90666 18.8624ZM25.9 0.44458L51.8 14.9791V43.4656L25.9 58.0001L0 43.4656V14.9791L25.9 0.44458Z" fill="#8CBCFF"/>
<path fill-rule="evenodd" clip-rule="evenodd" d="M0.127198 14.9077L6.90667 18.8624V39.9778L0.133529 43.541L0 43.4662V14.9791L0.127198 14.9077Z" fill="#BAD7FF"/>
<path fill-rule="evenodd" clip-rule="evenodd" d="M25.9004 0.44458L51.8004 14.9791L45.4693 18.4669L25.9004 8.0022V0.44458Z" fill="#BAD7FF"/>
<path fill-rule="evenodd" clip-rule="evenodd" d="M45.4693 39.9778L51.8004 43.4662L25.9004 58.0002V50.2428L45.4693 39.9778Z" fill="#588FDB"/>
<path fill-rule="evenodd" clip-rule="evenodd" d="M25.9 0.44458V8.0022L6.90666 18.8624L0 15.0056V14.9791L25.9 0.44458Z" fill="url(#paint1_linear_223_1993)"/>
<path fill-rule="evenodd" clip-rule="evenodd" d="M45.4689 18.6321V39.736L51.7706 43.6112L45.1811 40.1642L26.1302 50.1875L25.9 58.0001L25.6755 50.1875L6.90666 39.9778L25.9 49.9924L44.9687 39.7343L45.4689 18.6321ZM25.9 0.44458L0.682601 15.0274L6.90666 18.9688L0.41843 15.5276L0 43.6112V14.8335L25.9 0.44458Z" fill="white"/>
<defs>
<linearGradient id="paint0_linear_223_1993" x1="21.7485" y1="18.3506" x2="27.7071" y2="30.2901" gradientUnits="userSpaceOnUse">
<stop stop-color="#DEEDFF"/>
<stop offset="1" stop-color="#BAD7FF"/>
</linearGradient>
<linearGradient id="paint1_linear_223_1993" x1="24.346" y1="7.73744" x2="12.5871" y2="13.3597" gradientUnits="userSpaceOnUse">
<stop stop-color="#EDF5FF"/>
<stop offset="1" stop-color="#D6E7FF"/>
</linearGradient>
</defs>
</svg>
