<svg width="56" height="56" viewBox="0 0 56 56" fill="none" xmlns="http://www.w3.org/2000/svg">
<path d="M44.8 37.3333V28C44.8 18.7216 37.2784 11.2 28 11.2C18.7216 11.2 11.2 18.7216 11.2 28V37.3333" stroke="white" stroke-width="2"/>
<path d="M47.6667 34.5333V38.2667" stroke="white" stroke-width="2" stroke-linecap="round"/>
<path d="M8.33325 34.5333V38.2667" stroke="white" stroke-width="2" stroke-linecap="round"/>
<path d="M20.5333 31.4433C20.5333 30.0164 20.5333 29.303 20.2072 28.8069C20.043 28.5572 19.8252 28.3509 19.5709 28.2044C19.0656 27.9132 18.3832 27.9805 17.0183 28.1151C14.7184 28.3419 13.5685 28.4553 12.7444 29.076C12.3274 29.3902 11.9772 29.7908 11.7161 30.2525C11.2 31.1649 11.2 32.3671 11.2 34.7715V37.6941C11.2 40.0746 11.2 41.2648 11.7264 42.184C11.9234 42.528 12.1703 42.8383 12.4584 43.1038C13.2282 43.8132 14.3518 44.0348 16.5989 44.4779C18.1803 44.7898 18.971 44.9457 19.5545 44.6173C19.7699 44.4961 19.9602 44.332 20.1147 44.1344C20.5333 43.5988 20.5333 42.7612 20.5333 41.086V31.4433Z" stroke="white" stroke-width="2"/>
<path d="M35.4667 31.4433C35.4667 30.0164 35.4667 29.303 35.7928 28.8069C35.957 28.5572 36.1749 28.3509 36.4291 28.2044C36.9344 27.9132 37.6168 27.9805 38.9817 28.1151C41.2816 28.3419 42.4315 28.4553 43.2556 29.076C43.6726 29.3902 44.0228 29.7908 44.284 30.2525C44.8 31.1649 44.8 32.3671 44.8 34.7715V37.6941C44.8 40.0746 44.8 41.2648 44.2737 42.184C44.0766 42.528 43.8297 42.8383 43.5416 43.1038C42.7718 43.8132 41.6483 44.0348 39.4011 44.4779C37.8197 44.7898 37.029 44.9457 36.4455 44.6173C36.2301 44.4961 36.0398 44.332 35.8853 44.1344C35.4667 43.5988 35.4667 42.7612 35.4667 41.086V31.4433Z" stroke="white" stroke-width="2"/>
</svg>
