<svg width="20" height="20" viewBox="0 0 20 20" fill="none" xmlns="http://www.w3.org/2000/svg">
<path d="M7.97465 14.6072L8.37706 14.0968L7.97465 14.6072ZM10.0002 5.66706L9.53185 6.11781C9.65438 6.24512 9.82346 6.31706 10.0002 6.31706C10.1769 6.31706 10.3459 6.24512 10.4685 6.11781L10.0002 5.66706ZM12.0257 14.6072L12.4281 15.1177L12.4281 15.1177L12.0257 14.6072ZM8.37706 14.0968C7.35772 13.2932 6.26946 12.5275 5.40451 11.5535C4.56185 10.6047 3.9835 9.50949 3.9835 8.09137H2.6835C2.6835 9.9152 3.44496 11.3048 4.43248 12.4168C5.39773 13.5037 6.63005 14.3749 7.57225 15.1177L8.37706 14.0968ZM3.9835 8.09137C3.9835 6.71358 4.76181 5.56594 5.81209 5.08585C6.82141 4.6245 8.19825 4.73226 9.53185 6.11781L10.4685 5.2163C8.80218 3.48508 6.84569 3.18402 5.27165 3.90352C3.73857 4.60429 2.6835 6.2272 2.6835 8.09137H3.9835ZM7.57225 15.1177C7.91236 15.3858 8.28701 15.6795 8.66903 15.9028C9.05084 16.1259 9.50182 16.3166 10.0002 16.3166V15.0166C9.83184 15.0166 9.61615 14.9505 9.32491 14.7803C9.03389 14.6103 8.72912 14.3743 8.37706 14.0968L7.57225 15.1177ZM12.4281 15.1177C13.3703 14.3749 14.6026 13.5037 15.5678 12.4168C16.5554 11.3048 17.3168 9.9152 17.3168 8.09137H16.0168C16.0168 9.50949 15.4385 10.6047 14.5958 11.5535C13.7309 12.5275 12.6426 13.2932 11.6233 14.0968L12.4281 15.1177ZM17.3168 8.09137C17.3168 6.2272 16.2618 4.60429 14.7287 3.90352C13.1546 3.18402 11.1981 3.48508 9.53185 5.2163L10.4685 6.11781C11.8021 4.73226 13.1789 4.6245 14.1882 5.08585C15.2385 5.56594 16.0168 6.71358 16.0168 8.09137H17.3168ZM11.6233 14.0968C11.2712 14.3743 10.9664 14.6103 10.6754 14.7803C10.3842 14.9505 10.1685 15.0166 10.0002 15.0166V16.3166C10.4985 16.3166 10.9495 16.1259 11.3313 15.9028C11.7133 15.6795 12.088 15.3858 12.4281 15.1177L11.6233 14.0968Z" fill="#8B96B8"/>
</svg>
