<svg width="41" height="39" viewBox="0 0 41 39" fill="none" xmlns="http://www.w3.org/2000/svg">
<path d="M16.333 28.5771L16.7877 27.9807L16.333 28.5771ZM20.328 11.525L19.7964 12.054C19.9371 12.1954 20.1284 12.275 20.328 12.275C20.5275 12.275 20.7188 12.1954 20.8595 12.054L20.328 11.525ZM24.3229 28.5771L24.7776 29.1736L24.3229 28.5771ZM16.7877 27.9807C14.8082 26.4716 12.6037 24.97 10.8577 23.0686C9.13739 21.1953 7.92914 18.9983 7.92914 16.149H6.42914C6.42914 19.4833 7.86342 22.0257 9.75286 24.0832C11.6165 26.1126 13.989 27.7333 15.8783 29.1736L16.7877 27.9807ZM7.92914 16.149C7.92914 13.3519 9.56401 10.98 11.838 9.97478C14.0709 8.9877 17.0323 9.27681 19.7964 12.054L20.8595 10.9959C17.7069 7.82825 14.0938 7.33758 11.2315 8.60284C8.4103 9.84997 6.42914 12.7625 6.42914 16.149H7.92914ZM15.8783 29.1736C16.5541 29.6888 17.2644 30.2261 17.9804 30.6307C18.6966 31.0355 19.4864 31.3478 20.328 31.3478V29.8478C19.8547 29.8478 19.3295 29.6702 18.7183 29.3248C18.1068 28.9793 17.4771 28.5062 16.7877 27.9807L15.8783 29.1736ZM24.7776 29.1736C26.6669 27.7333 29.0394 26.1126 30.903 24.0832C32.7925 22.0257 34.2268 19.4833 34.2268 16.149H32.7268C32.7268 18.9983 31.5185 21.1953 29.7982 23.0686C28.0522 24.97 25.8477 26.4716 23.8682 27.9807L24.7776 29.1736ZM34.2268 16.149C34.2268 12.7625 32.2456 9.84997 29.4244 8.60284C26.5621 7.33758 22.949 7.82825 19.7964 10.9959L20.8595 12.054C23.6236 9.27681 26.585 8.9877 28.8179 9.97478C31.0919 10.98 32.7268 13.3519 32.7268 16.149H34.2268ZM23.8682 27.9807C23.1788 28.5062 22.5491 28.9793 21.9376 29.3248C21.3264 29.6702 20.8012 29.8478 20.328 29.8478V31.3478C21.1695 31.3478 21.9593 31.0355 22.6756 30.6307C23.3915 30.2261 24.1018 29.6888 24.7776 29.1736L23.8682 27.9807Z" fill="#1C274C"/>
</svg>
