<svg width="41" height="40" viewBox="0 0 41 40" fill="none" xmlns="http://www.w3.org/2000/svg">
<g clip-path="url(#clip0_19_103)">
<path d="M12.4331 39.9651C9.99763 39.9651 7.5595 40.0503 5.12583 39.9523C2.24659 39.8377 0.0463867 37.3518 0.0463867 34.3876C0.0463867 24.8279 0.0668827 15.2691 0.0463867 5.70753C0.0463867 2.4336 2.52907 0.152025 5.39317 0.0759723C8.39093 -0.00282915 11.3923 0.0567302 14.3936 0.0567302C14.4462 0.0567302 14.5148 0.0310739 14.5486 0.119038C14.5299 0.283055 14.3704 0.302298 14.2679 0.361857C12.5035 1.42659 10.8897 2.70208 9.53692 4.27353C7.29662 6.87581 5.75229 9.86293 5.22831 13.3329C4.29975 19.4676 6.16043 24.6657 10.3808 29.0108C11.1329 29.785 11.2292 30.3953 10.6259 31.4426C9.90318 32.6961 8.80798 33.5501 7.64416 34.329C7.51612 34.4058 7.39235 34.4899 7.27345 34.5809C7.08275 34.7422 7.20216 34.8293 7.36256 34.898C7.3955 34.9804 7.44025 35.0573 7.49534 35.1261C8.51925 36.0626 9.4888 37.0577 10.4958 38.0106C10.971 38.4615 11.438 38.923 11.8966 39.3952C12.0766 39.5858 12.3885 39.6435 12.4331 39.9651Z" fill="white"/>
<path d="M12.433 39.9653C12.3867 39.6437 12.0766 39.586 11.8921 39.399C11.4358 38.9262 10.9689 38.4647 10.4912 38.0145C9.48427 37.0616 8.51472 36.0665 7.49081 35.13C7.43572 35.0612 7.39096 34.9843 7.35803 34.9019C9.63398 35.36 11.8484 35.0457 14.0362 34.3576C14.774 34.1248 15.5145 33.8994 16.264 33.7024C16.7691 33.5668 17.3023 33.5907 17.7941 33.7711C23.4447 35.7723 29.0259 35.5891 34.5072 33.1151C36.7469 32.1005 38.7827 30.6648 40.5099 28.8818C40.599 28.7902 40.6605 28.6564 40.8173 28.6436C40.8966 28.7737 40.8538 28.9129 40.8538 29.0431C40.8574 30.8298 40.8574 32.6166 40.8538 34.4034C40.8591 35.1342 40.7237 35.8589 40.4552 36.5357C40.1868 37.2124 39.7907 37.8278 39.2899 38.3464C38.789 38.865 38.1933 39.2765 37.537 39.5572C36.8807 39.8379 36.1768 39.9822 35.4661 39.9818C32.258 40.0001 29.0499 39.9864 25.8419 39.9864H12.9677C12.7895 39.9818 12.6112 39.9708 12.433 39.9653Z" fill="white"/>
<path d="M13.8179 19.4622C15.1662 19.4622 16.4245 19.4549 17.6827 19.4622C18.3903 19.4677 18.7717 19.7774 18.8412 20.3501C18.9232 21.0749 18.5115 21.556 17.7487 21.5642C16.3077 21.5816 14.8676 21.5706 13.4267 21.5706C13.0114 21.5706 12.5944 21.5862 12.1791 21.5615C11.6623 21.5303 11.157 21.4258 10.9092 20.877C10.6615 20.3281 10.8344 19.8352 11.1766 19.3871C12.5531 17.5875 13.9305 15.7882 15.3088 13.9892C15.3907 13.8829 15.47 13.7739 15.5494 13.6666C15.4647 13.51 15.3319 13.5805 15.2277 13.575C14.2626 13.5686 13.2975 13.575 12.3324 13.5677C12.11 13.5702 11.8882 13.5444 11.6721 13.4907C11.4674 13.4418 11.2847 13.3235 11.1533 13.1549C11.022 12.9863 10.9495 12.7772 10.9477 12.5612C10.9458 12.3452 11.0147 12.1348 11.1431 11.9639C11.2716 11.7929 11.4522 11.6714 11.656 11.6187C11.8713 11.5611 12.093 11.533 12.3154 11.5353C13.9046 11.5292 15.4935 11.5292 17.0821 11.5353C17.3645 11.5232 17.6468 11.5588 17.918 11.6407C18.5204 11.8551 18.7859 12.426 18.5418 13.0307C18.3288 13.5567 17.9884 14.0048 17.6506 14.4482C16.4856 15.9754 15.3186 17.498 14.1494 19.016C14.0523 19.1424 13.9658 19.2643 13.8179 19.4622Z" fill="white"/>
<path d="M24.1549 14.6407C24.3715 14.3594 24.5871 14.0909 24.957 14.0176C25.6565 13.871 26.3204 14.3392 26.3302 15.0713C26.3534 16.9039 26.3445 18.7365 26.3346 20.5691C26.3353 20.8007 26.2636 21.0264 26.1302 21.213C25.9967 21.3996 25.8085 21.5371 25.5932 21.6054C25.3757 21.6912 25.1372 21.703 24.9127 21.6392C24.6882 21.5754 24.4894 21.4393 24.3456 21.2508C24.195 21.0556 24.1309 21.0227 23.9215 21.1977C23.1097 21.8739 22.1945 21.9921 21.2053 21.6622C19.6182 21.1326 18.965 19.8608 18.7921 18.304C18.6077 16.6309 19.1486 15.195 20.6056 14.3145C21.8139 13.5814 23.0428 13.6428 24.1549 14.6407ZM21.0048 17.9906C21.0198 18.3892 21.1505 18.7741 21.38 19.0957C21.5161 19.282 21.6926 19.4331 21.8953 19.5373C22.0981 19.6414 22.3216 19.6956 22.5482 19.6956C22.7749 19.6956 22.9984 19.6414 23.2012 19.5373C23.4039 19.4331 23.5803 19.282 23.7165 19.0957C24.2155 18.403 24.2129 17.253 23.7165 16.5612C23.5952 16.3869 23.4364 16.2438 23.2525 16.143C23.0685 16.0423 22.8644 15.9866 22.6561 15.9803C21.6785 15.918 20.995 16.695 21.0048 17.9906Z" fill="white"/>
<path d="M30.3304 18.041C30.2627 15.688 31.7643 13.9305 33.8994 13.8627C36.1682 13.7912 37.832 15.3599 37.8997 17.647C37.9692 19.9625 36.5871 21.6054 34.4564 21.8244C32.1421 22.0635 30.2975 20.329 30.3304 18.041ZM32.5725 17.8202C32.5573 18.2792 32.6908 18.7305 32.9522 19.103C33.0878 19.2847 33.2619 19.4322 33.4613 19.5342C33.6607 19.6363 33.8802 19.6902 34.1029 19.6919C34.3257 19.6935 34.5458 19.6429 34.7467 19.5439C34.9475 19.4449 35.1238 19.3 35.262 19.1204C35.7797 18.4277 35.7824 17.2512 35.2709 16.5548C35.1492 16.3812 34.9902 16.2388 34.8063 16.1386C34.6224 16.0385 34.4185 15.9834 34.2104 15.9775C33.2471 15.9244 32.5725 16.6812 32.5725 17.8202Z" fill="white"/>
<path d="M29.5499 16.2193C29.5499 17.6386 29.557 19.0598 29.5499 20.4773C29.5537 20.6611 29.5157 20.8433 29.439 21.0095C29.3623 21.1756 29.249 21.321 29.1081 21.4342C28.9672 21.5475 28.8026 21.6253 28.6273 21.6617C28.452 21.6981 28.2708 21.6919 28.0983 21.6437C27.6482 21.5274 27.3123 21.0362 27.3114 20.4645C27.3078 18.0381 27.3078 15.6112 27.3114 13.1836C27.3114 12.7566 27.306 12.3287 27.3114 11.9008C27.323 11.1961 27.757 10.7389 28.4146 10.7325C29.0919 10.7261 29.5463 11.1842 29.5499 11.9136C29.5561 13.3494 29.5499 14.7889 29.5499 16.2193Z" fill="white"/>
<path d="M35.1185 0.0917969H5.88146C2.68243 0.0917969 0.0891113 2.75836 0.0891113 6.04772V33.8152C0.0891113 37.1045 2.68243 39.7711 5.88146 39.7711H35.1185C38.3176 39.7711 40.9109 37.1045 40.9109 33.8152V6.04772C40.9109 2.75836 38.3176 0.0917969 35.1185 0.0917969Z" stroke="white" stroke-width="2" stroke-miterlimit="10"/>
</g>
<defs>
<clipPath id="clip0_19_103">
<rect width="41" height="40" fill="white"/>
</clipPath>
</defs>
</svg>
