<svg width="56" height="56" viewBox="0 0 56 56" fill="none" xmlns="http://www.w3.org/2000/svg">
<path d="M41.611 22.1667C41.611 24.9861 40.7749 27.5722 39.336 29.7306C37.236 32.8417 33.911 35.0389 30.0416 35.6028C29.3805 35.7194 28.6999 35.7778 27.9999 35.7778C27.2999 35.7778 26.6193 35.7194 25.9582 35.6028C22.0888 35.0389 18.7638 32.8417 16.6638 29.7306C15.2249 27.5722 14.3888 24.9861 14.3888 22.1667C14.3888 14.6417 20.4749 8.55554 27.9999 8.55554C35.5249 8.55554 41.611 14.6417 41.611 22.1667Z" stroke="white" stroke-width="2" stroke-linecap="round" stroke-linejoin="round"/>
<path d="M45.986 40.5806L42.7776 41.3389C42.0582 41.5139 41.4943 42.0584 41.3387 42.7778L40.6582 45.6361C40.2887 47.1917 38.3054 47.6584 37.2749 46.4334L27.9999 35.7778L18.7249 46.4528C17.6943 47.6778 15.711 47.2111 15.3415 45.6555L14.661 42.7972C14.486 42.0778 13.9221 41.5139 13.2221 41.3583L10.0137 40.6C8.53597 40.25 8.01097 38.4028 9.08041 37.3333L16.6637 29.75C18.7637 32.8611 22.0887 35.0584 25.9582 35.6223C26.6193 35.7389 27.2999 35.7973 27.9999 35.7973C28.6999 35.7973 29.3804 35.7389 30.0415 35.6223C33.911 35.0584 37.236 32.8611 39.336 29.75L46.9193 37.3333C47.9887 38.3833 47.4637 40.2306 45.986 40.5806Z" stroke="white" stroke-width="2" stroke-linecap="round" stroke-linejoin="round"/>
<path d="M29.1277 16.2944L30.2749 18.5888C30.4304 18.9 30.8388 19.2111 31.2082 19.2694L33.2888 19.6194C34.611 19.8333 34.9221 20.8055 33.9693 21.7583L32.3554 23.3722C32.0832 23.6444 31.9277 24.1694 32.0249 24.5583L32.4916 26.5611C32.861 28.1361 32.0249 28.7583 30.6249 27.9222L28.6804 26.7749C28.3304 26.5611 27.7471 26.5611 27.3971 26.7749L25.4527 27.9222C24.0527 28.7388 23.2166 28.1361 23.586 26.5611L24.0527 24.5583C24.1304 24.1889 23.9943 23.6444 23.7221 23.3722L22.1082 21.7583C21.1554 20.8055 21.4666 19.8527 22.7888 19.6194L24.8693 19.2694C25.2193 19.2111 25.6277 18.9 25.7832 18.5888L26.9304 16.2944C27.4943 15.05 28.5054 15.05 29.1277 16.2944Z" stroke="white" stroke-width="2" stroke-linecap="round" stroke-linejoin="round"/>
</svg>
