<svg width="24" height="24" viewBox="0 0 24 24" fill="none" xmlns="http://www.w3.org/2000/svg">
<path d="M13.6 4C13.6 4 15.36 4.16 17.6 6.4C19.84 8.64 20 10.4 20 10.4" stroke="white" stroke-width="1.5" stroke-linecap="round"/>
<path d="M13.7656 6.82861C13.7656 6.82861 14.5576 7.05489 15.7455 8.24283C16.9335 9.43077 17.1597 10.2227 17.1597 10.2227" stroke="white" stroke-width="1.5" stroke-linecap="round"/>
<path d="M10.43 6.65303L10.9493 7.58338C11.4178 8.42296 11.2297 9.52435 10.4917 10.2623C10.4917 10.2623 10.4917 10.2623 10.4917 10.2623C10.4916 10.2625 9.5967 11.1576 11.2196 12.7805C12.8418 14.4027 13.7369 13.5091 13.7377 13.5083C13.7378 13.5083 13.7377 13.5083 13.7378 13.5083C14.4758 12.7703 15.5771 12.5823 16.4167 13.0508L17.347 13.57C18.6148 14.2776 18.7646 16.0555 17.6502 17.1699C16.9806 17.8395 16.1603 18.3605 15.2535 18.3949C13.727 18.4527 11.1346 18.0664 8.53414 15.4659C5.93368 12.8655 5.54735 10.2731 5.60522 8.74657C5.63959 7.83978 6.16062 7.01949 6.83022 6.34988C7.94458 5.23552 9.72251 5.38525 10.43 6.65303Z" stroke="white" stroke-width="1.5" stroke-linecap="round"/>
</svg>
