<svg width="24" height="24" viewBox="0 0 24 24" fill="none" xmlns="http://www.w3.org/2000/svg">
<path d="M11.2301 5.85294L11.7493 6.78328C12.2179 7.62287 12.0298 8.72426 11.2918 9.46224C11.2918 9.46224 11.2918 9.46224 11.2918 9.46225C11.2917 9.46236 10.3967 10.3575 12.0196 11.9804C13.6419 13.6026 14.537 12.709 14.5378 12.7082C14.5378 12.7082 14.5378 12.7082 14.5378 12.7082C15.2758 11.9703 16.3772 11.7822 17.2167 12.2507L18.1471 12.7699C19.4149 13.4775 19.5646 15.2554 18.4502 16.3698C17.7806 17.0394 16.9603 17.5604 16.0536 17.5948C14.527 17.6526 11.9346 17.2663 9.33419 14.6658C6.73373 12.0654 6.3474 9.47298 6.40527 7.94647C6.43964 7.03968 6.96067 6.21939 7.63027 5.54979C8.74463 4.43543 10.5226 4.58515 11.2301 5.85294Z" stroke="#1C274C" stroke-width="1.5" stroke-linecap="round"/>
</svg>
