<svg width="56" height="56" viewBox="0 0 56 56" fill="none" xmlns="http://www.w3.org/2000/svg">
<path d="M38.9098 17.0902C38.9098 17.0902 38.1022 21.28 33.4241 25.9581C28.746 30.6362 24.5569 31.4431 24.5569 31.4431M43.6941 36.2274C39.7307 40.1909 33.3047 40.1909 29.3412 36.2274L19.7726 26.6588C15.8092 22.6954 15.8092 16.2694 19.7726 12.3059C23.7361 8.34248 30.1621 8.34248 34.1255 12.3059L43.6941 21.8745C47.6576 25.838 47.6576 32.264 43.6941 36.2274Z" stroke="white" stroke-width="2"/>
<path d="M32.6667 17.7333L29.8667 14.9333" stroke="white" stroke-width="2" stroke-linecap="round"/>
<path d="M18.163 24.5179C13.1158 25.6054 9.33325 30.0943 9.33325 35.4667C9.33325 41.6522 14.3477 46.6667 20.5333 46.6667C25.93 46.6667 30.4352 42.8497 31.4966 37.7681" stroke="white" stroke-width="2"/>
</svg>
