<svg width="53" height="58" viewBox="0 0 53 58" fill="none" xmlns="http://www.w3.org/2000/svg">
<path d="M6.96 18.6675V39.3329L26.1 49.8802L45.24 39.3329V18.6675L26.1 8.12024L6.96 18.6675ZM26.1 0.000244141L52.2 14.5002V43.5002L26.1 58.0002L0 43.5002V14.5002L26.1 0.000244141Z" fill="#C6D2E3"/>
<path fill-rule="evenodd" clip-rule="evenodd" d="M0 14.5002L6.96 18.6675V39.3329L6.99712 39.3532L0 43.5002V14.5002Z" fill="#D7E1EE"/>
<path fill-rule="evenodd" clip-rule="evenodd" d="M26.0996 0.000244141L52.1996 14.5002L45.2396 18.6675L26.0996 8.12024V0.000244141Z" fill="#D7E1EE"/>
<path fill-rule="evenodd" clip-rule="evenodd" d="M45.2396 39.333L52.1996 43.5003L26.0996 58.0003V49.8803L45.2396 39.333Z" fill="#98AAC3"/>
<path fill-rule="evenodd" clip-rule="evenodd" d="M26.1 0.000244141V8.12024L6.96 18.6675L0 14.6429V14.5002L26.1 0.000244141Z" fill="url(#paint0_linear_223_1979)"/>
<path fill-rule="evenodd" clip-rule="evenodd" d="M25.5288 38.328L18.2341 41.5504C18.0542 41.6302 17.8501 41.6355 17.6664 41.5651C17.4826 41.4946 17.3343 41.3542 17.2539 41.1746C17.2025 41.0576 17.1825 40.9293 17.1959 40.8022L17.9946 32.6788C18.0149 32.4712 17.991 32.2617 17.9244 32.064C17.8578 31.8663 17.7501 31.6851 17.6083 31.5321L12.379 25.8852C12.2894 25.7883 12.2274 25.6691 12.1994 25.5401C12.1714 25.4111 12.1785 25.2769 12.22 25.1516C12.2614 25.0262 12.3357 24.9143 12.4351 24.8274C12.5344 24.7405 12.6553 24.6818 12.785 24.6574L20.5448 23.2004C20.7586 23.1602 20.9609 23.0736 21.1376 22.9468C21.3143 22.8199 21.461 22.6558 21.5674 22.4661L25.4824 15.4626C25.547 15.3473 25.6413 15.2513 25.7553 15.1845C25.8694 15.1177 25.9992 15.0825 26.1314 15.0825C26.2636 15.0825 26.3934 15.1177 26.5075 15.1845C26.6215 15.2513 26.7157 15.3473 26.7804 15.4626L30.6954 22.4661C30.8018 22.6558 30.9485 22.8199 31.1252 22.9468C31.3019 23.0736 31.5042 23.1602 31.7179 23.2004L39.4778 24.6597C39.6077 24.6837 39.7289 24.7423 39.8285 24.8291C39.9281 24.916 40.0025 25.028 40.044 25.1535C40.0855 25.279 40.0925 25.4133 40.0643 25.5425C40.0361 25.6716 39.9738 25.7908 39.8838 25.8876L34.6545 31.5344C34.5127 31.6874 34.405 31.8687 34.3384 32.0663C34.2718 32.264 34.2479 32.4735 34.2682 32.6811L35.0669 40.8046C35.0762 40.9015 35.0664 40.9993 35.0379 41.0923C35.0095 41.1854 34.9629 41.272 34.901 41.3471C34.839 41.4222 34.7629 41.4843 34.6769 41.53C34.5909 41.5756 34.4968 41.6039 34.3999 41.6131C34.2725 41.6259 34.1439 41.606 34.0264 41.5551L26.7317 38.3326C26.5425 38.2484 26.3378 38.2046 26.1307 38.2038C25.9236 38.203 25.7186 38.2453 25.5288 38.328Z" fill="#C6D2E3"/>
<path fill-rule="evenodd" clip-rule="evenodd" d="M26.0833 28.7305L17.6385 41.5532C17.4938 41.4912 17.3726 41.3846 17.2927 41.249C17.2128 41.1134 17.1783 40.9558 17.1942 40.7992L17.9929 32.6757C18.0102 32.4975 17.995 32.3177 17.9482 32.145L26.0833 28.7305ZM26.1581 28.6899L26.1465 28.7038L26.0833 28.7305L26.1007 28.7038L26.1581 28.6899ZM31.7186 23.2002L39.4784 24.6595C39.6257 24.687 39.7613 24.7584 39.8672 24.8644C39.9731 24.9705 40.0444 25.1061 40.0717 25.2534L26.1587 28.6899L30.9895 22.8319C31.1935 23.0202 31.446 23.1477 31.7186 23.2002Z" fill="#D7E1EE"/>
<path fill-rule="evenodd" clip-rule="evenodd" d="M26.1456 28.7039L26.1085 38.2008C25.9086 38.204 25.7114 38.2472 25.5285 38.3278L18.2338 41.5503C18.1107 41.6049 17.975 41.625 17.8413 41.6086C17.7076 41.5921 17.5809 41.5397 17.4746 41.4569L26.1456 28.7039ZM40.0697 25.5203C40.0435 25.6563 39.9798 25.7822 39.8858 25.8839L34.6565 31.5308C34.5147 31.6838 34.407 31.8651 34.3404 32.0627C34.2738 32.2604 34.2499 32.4699 34.2703 32.6775L35.0689 40.801C35.0828 40.9431 35.0551 41.0863 34.9893 41.2131C34.9236 41.3399 34.8225 41.4449 34.6983 41.5155L26.1456 28.7039L40.0703 25.25C40.0867 25.3394 40.0865 25.431 40.0697 25.5203Z" fill="#98AAC3"/>
<path fill-rule="evenodd" clip-rule="evenodd" d="M26.1457 15.0802V28.7038L12.2129 25.1658C12.2531 25.0372 12.3275 24.9219 12.4283 24.8324C12.5291 24.7429 12.6523 24.6825 12.7848 24.6577L20.5446 23.2002C20.7584 23.16 20.9607 23.0734 21.1374 22.9465C21.314 22.8197 21.4607 22.6556 21.5671 22.4659L25.4821 15.4624C25.5477 15.3446 25.6441 15.2467 25.761 15.1794C25.8778 15.1121 26.0108 15.0778 26.1457 15.0802Z" fill="#E5EDF8"/>
<path fill-rule="evenodd" clip-rule="evenodd" d="M21.1519 22.9341L26.1457 28.7039L12.2129 25.1659C12.2514 25.0408 12.3227 24.9282 12.4194 24.84C12.5217 24.746 12.6483 24.6827 12.7848 24.6573L20.5446 23.2003C20.7644 23.1581 20.9719 23.0672 21.1519 22.9341Z" fill="url(#paint1_linear_223_1979)"/>
<path fill-rule="evenodd" clip-rule="evenodd" d="M45.24 18.6675L45.4471 39.3242L52.1704 43.5002L45.1553 39.7563L26.332 49.8802L26.1 58.0002L25.8738 49.8802L6.96 39.3242L26.1 49.6854L44.943 39.3242L45.24 18.6675ZM26.1 0.000244141L0.687872 14.6957L6.96 18.6675L0.421661 15.1997L0 43.5002V14.5002L26.1 0.000244141Z" fill="white"/>
<defs>
<linearGradient id="paint0_linear_223_1979" x1="20.619" y1="7.19306" x2="13.1865" y2="14.2146" gradientUnits="userSpaceOnUse">
<stop stop-color="#F4F8FC"/>
<stop offset="1" stop-color="#E5EDF8"/>
</linearGradient>
<linearGradient id="paint1_linear_223_1979" x1="23.0062" y1="25.4381" x2="18.3472" y2="21.7649" gradientUnits="userSpaceOnUse">
<stop stop-color="white"/>
<stop offset="1" stop-color="#E5EDF8"/>
</linearGradient>
</defs>
</svg>
