<svg width="52" height="58" viewBox="0 0 52 58" fill="none" xmlns="http://www.w3.org/2000/svg">
<path d="M6.93333 18.6675V39.3329L26 49.8802L45.0667 39.3329V18.6675L26 8.12024L6.93333 18.6675ZM26 0.000244141L52 14.5002V43.5002L26 58.0002L0 43.5002V14.5002L26 0.000244141Z" fill="#BBBDBD"/>
<path fill-rule="evenodd" clip-rule="evenodd" d="M0 14.5002L7.11013 18.5695L6.93333 18.6675V39.3329L6.97031 39.3532L0 43.5002V14.5002Z" fill="#D0D3D3"/>
<path fill-rule="evenodd" clip-rule="evenodd" d="M26 0.000244141L52 14.5002L45.0667 18.6675L26 8.12024V0.000244141Z" fill="#C3C6C6"/>
<path fill-rule="evenodd" clip-rule="evenodd" d="M45.0667 39.333L52 43.5003L26 58.0003V49.8803L45.0667 39.333Z" fill="#A3A6A6"/>
<path fill-rule="evenodd" clip-rule="evenodd" d="M26 0.000244141V8.12024L6.97667 18.6438L6.93333 18.6223L0 14.6429V14.5002L26 0.000244141Z" fill="#D9DCDD"/>
<path d="M26 19.1403L34.0889 23.7803V33.0603L26 37.7003L17.9111 33.0603V23.7803L26 19.1403Z" fill="#C3C6C6"/>
<path fill-rule="evenodd" clip-rule="evenodd" d="M17.9111 23.7803L26 19.1403V28.4203L17.9111 30.1574V23.7803Z" fill="#E5E8E9"/>
<path fill-rule="evenodd" clip-rule="evenodd" d="M34.0889 33.0603L26 28.4203V37.7003L34.0889 33.0603Z" fill="#A3A6A6"/>
<path fill-rule="evenodd" clip-rule="evenodd" d="M26 19.1403V28.4203L34.0889 23.7803L26 19.1403Z" fill="#D9DCDD"/>
<path fill-rule="evenodd" clip-rule="evenodd" d="M17.9111 23.7803L26 28.4203L17.9111 33.0603V23.7803Z" fill="#D0D3D3"/>
<path fill-rule="evenodd" clip-rule="evenodd" d="M45.0667 18.6675L45.2729 39.3242L51.9705 43.5002L44.9823 39.7563L26.2311 49.8802L26 58.0002L25.7747 49.8802L6.93333 39.3242L26 49.6854L44.7708 39.3242L45.0667 18.6675ZM26 0.000244141L0.685244 14.6957L6.93333 18.6675L0.420046 15.1997L0 43.5002V14.5002L26 0.000244141Z" fill="white"/>
</svg>
