<svg width="56" height="56" viewBox="0 0 56 56" fill="none" xmlns="http://www.w3.org/2000/svg">
<path d="M28.9999 31.6667H30.9166C33.0249 31.6667 34.7499 30.0167 34.7499 28V9.66666H17.4999C14.6249 9.66666 12.1141 11.1883 10.8108 13.425" stroke="white" stroke-width="2" stroke-linecap="round" stroke-linejoin="round"/>
<path d="M9.83325 37.1666C9.83325 40.21 12.4016 42.6666 15.5833 42.6666H17.4999C17.4999 40.65 19.2249 39 21.3333 39C23.4416 39 25.1666 40.65 25.1666 42.6666H32.8333C32.8333 40.65 34.5583 39 36.6666 39C38.7749 39 40.4999 40.65 40.4999 42.6666H42.4166C45.5983 42.6666 48.1666 40.21 48.1666 37.1666V31.6666H42.4166C41.3624 31.6666 40.4999 30.8416 40.4999 29.8333V24.3333C40.4999 23.325 41.3624 22.5 42.4166 22.5H44.889L41.6116 17.0183C40.9216 15.8816 39.6566 15.1666 38.2766 15.1666H34.7499V28C34.7499 30.0166 33.0249 31.6666 30.9166 31.6666H28.9999" stroke="white" stroke-width="2" stroke-linecap="round" stroke-linejoin="round"/>
<path d="M21.3333 46.3333C23.4504 46.3333 25.1667 44.6917 25.1667 42.6667C25.1667 40.6416 23.4504 39 21.3333 39C19.2162 39 17.5 40.6416 17.5 42.6667C17.5 44.6917 19.2162 46.3333 21.3333 46.3333Z" stroke="white" stroke-width="2" stroke-linecap="round" stroke-linejoin="round"/>
<path d="M36.6666 46.3333C38.7837 46.3333 40.4999 44.6917 40.4999 42.6667C40.4999 40.6416 38.7837 39 36.6666 39C34.5495 39 32.8333 40.6416 32.8333 42.6667C32.8333 44.6917 34.5495 46.3333 36.6666 46.3333Z" stroke="white" stroke-width="2" stroke-linecap="round" stroke-linejoin="round"/>
<path d="M48.1667 28V31.6667H42.4167C41.3625 31.6667 40.5 30.8417 40.5 29.8333V24.3333C40.5 23.325 41.3625 22.5 42.4167 22.5H44.8891L48.1667 28Z" stroke="white" stroke-width="2" stroke-linecap="round" stroke-linejoin="round"/>
<path d="M9.83325 20.6666H21.3333" stroke="white" stroke-width="2" stroke-linecap="round" stroke-linejoin="round"/>
<path d="M9.83325 26.1666H17.4999" stroke="white" stroke-width="2" stroke-linecap="round" stroke-linejoin="round"/>
<path d="M9.83325 31.6666H13.6666" stroke="white" stroke-width="2" stroke-linecap="round" stroke-linejoin="round"/>
</svg>
