<svg width="32" height="32" viewBox="0 0 32 32" fill="none" xmlns="http://www.w3.org/2000/svg">
<path d="M5.8667 10.1333C5.8667 8.12198 5.8667 7.11632 6.49154 6.49148C7.11638 5.86664 8.12204 5.86664 10.1334 5.86664C12.1447 5.86664 13.1504 5.86664 13.7752 6.49148C14.4 7.11632 14.4 8.12198 14.4 10.1333C14.4 12.1446 14.4 13.1503 13.7752 13.7751C13.1504 14.4 12.1447 14.4 10.1334 14.4C8.12204 14.4 7.11638 14.4 6.49154 13.7751C5.8667 13.1503 5.8667 12.1446 5.8667 10.1333Z" stroke="#1C274C" stroke-width="1.5"/>
<path d="M17.6 21.8666C17.6 19.8553 17.6 18.8497 18.2248 18.2248C18.8497 17.6 19.8553 17.6 21.8666 17.6C23.878 17.6 24.8836 17.6 25.5085 18.2248C26.1333 18.8497 26.1333 19.8553 26.1333 21.8666C26.1333 23.878 26.1333 24.8836 25.5085 25.5085C24.8836 26.1333 23.878 26.1333 21.8666 26.1333C19.8553 26.1333 18.8497 26.1333 18.2248 25.5085C17.6 24.8836 17.6 23.878 17.6 21.8666Z" stroke="#1C274C" stroke-width="1.5"/>
<path d="M5.8667 21.8666C5.8667 19.8553 5.8667 18.8497 6.49154 18.2248C7.11638 17.6 8.12204 17.6 10.1334 17.6C12.1447 17.6 13.1504 17.6 13.7752 18.2248C14.4 18.8497 14.4 19.8553 14.4 21.8666C14.4 23.878 14.4 24.8836 13.7752 25.5085C13.1504 26.1333 12.1447 26.1333 10.1334 26.1333C8.12204 26.1333 7.11638 26.1333 6.49154 25.5085C5.8667 24.8836 5.8667 23.878 5.8667 21.8666Z" stroke="#1C274C" stroke-width="1.5"/>
<path d="M17.6 10.1333C17.6 8.12198 17.6 7.11632 18.2248 6.49148C18.8497 5.86664 19.8553 5.86664 21.8666 5.86664C23.878 5.86664 24.8836 5.86664 25.5085 6.49148C26.1333 7.11632 26.1333 8.12198 26.1333 10.1333C26.1333 12.1446 26.1333 13.1503 25.5085 13.7751C24.8836 14.4 23.878 14.4 21.8666 14.4C19.8553 14.4 18.8497 14.4 18.2248 13.7751C17.6 13.1503 17.6 12.1446 17.6 10.1333Z" stroke="#1C274C" stroke-width="1.5"/>
</svg>
